<svg version="1.2" baseProfile="tiny-ps" xmlns="http://www.w3.org/2000/svg" viewBox="0 0 28 28" width="28" height="28">
	<title>Search Icon copy</title>
	<style>
		tspan { white-space:nowrap}
		.shp0 { fill: none }
		path {
			stroke: #fff;
			stroke-width: 1px;
			stroke: 2,2;
		}
	</style>
	<path id="Search Icon copy" class="shp0" d="M26.3 28L18.05 19.73C16.14 21.27 13.72 22.2 11.08 22.2C4.97 22.2 0 17.22 0 11.1C0 4.97 4.96 0 11.08 0C17.2 0 22.17 4.97 22.17 11.1C22.17 13.72 21.25 16.14 19.74 18.03L28 26.3L26.3 28ZM4.65 17.54C2.93 15.82 1.99 13.54 1.99 11.1C1.99 8.67 2.94 6.38 4.65 4.67C6.36 2.95 8.66 1.99 11.08 1.99C13.51 1.99 15.8 2.94 17.51 4.66C19.23 6.38 20.18 8.66 20.18 11.1C20.18 13.53 19.23 15.82 17.51 17.54C15.8 19.25 13.51 20.2 11.08 20.2C8.66 20.21 6.37 19.26 4.65 17.54Z" />
</svg>